<svg id="e45d197c-c5ee-46ea-85b6-081f1b89c3f7" data-name="Слой 1" xmlns="http://www.w3.org/2000/svg" viewBox="0 0 841.89 595.28"><defs><style>.\30 d0b918a-bed7-410d-bc07-422c0b919c08{fill:#fff;}.\36 399496c-1da0-4880-8395-6792c9b74c99{fill:#ff4e40;}</style></defs><title>Векторный смарт-объект4</title><path class="0d0b918a-bed7-410d-bc07-422c0b919c08" d="M194.2,232.2a45.75,45.75,0,0,0-25.93,8,14.83,14.83,0,0,1,1.4,1.46,43.94,43.94,0,1,1-17.47,23.39,14.51,14.51,0,0,1-1.8-.92,46,46,0,1,0,43.8-31.95Z"/><path class="0d0b918a-bed7-410d-bc07-422c0b919c08" d="M158.06,267.26a16,16,0,1,1,16-16A16,16,0,0,1,158.06,267.26Zm0-30.06a14,14,0,1,0,14,14A14,14,0,0,0,158.06,237.2Z"/><circle class="6399496c-1da0-4880-8395-6792c9b74c99" cx="158.12" cy="251.29" r="12"/><path class="0d0b918a-bed7-410d-bc07-422c0b919c08" d="M151.31,252.5a.64.64,0,0,1-.19-.49.66.66,0,0,1,.19-.49l1-1a.63.63,0,0,1,.48-.21.73.73,0,0,1,.51.21l3.06,3.07,6.56-6.57a.73.73,0,0,1,.51-.21.63.63,0,0,1,.48.21l1,1a.7.7,0,0,1,.19.49.68.68,0,0,1-.19.49l-8.07,8a.61.61,0,0,1-.49.22.6.6,0,0,1-.49-.22Z"/><path class="0d0b918a-bed7-410d-bc07-422c0b919c08" d="M335,232.2a45.71,45.71,0,0,1,25.92,8,16.09,16.09,0,0,0-1.4,1.46A43.92,43.92,0,1,0,377,265.07a14.38,14.38,0,0,0,1.79-.92A46,46,0,1,1,335,232.2Z"/><path class="0d0b918a-bed7-410d-bc07-422c0b919c08" d="M355.13,251.23a16,16,0,1,1,16,16A16,16,0,0,1,355.13,251.23Zm2,0a14,14,0,1,0,14-14A14,14,0,0,0,357.13,251.23Z"/><circle class="6399496c-1da0-4880-8395-6792c9b74c99" cx="371.1" cy="251.29" r="12"/><path class="0d0b918a-bed7-410d-bc07-422c0b919c08" d="M364.3,252.5a.65.65,0,0,1-.2-.49.66.66,0,0,1,.2-.49l1-1a.6.6,0,0,1,.48-.21.69.69,0,0,1,.5.21l3.06,3.07,6.57-6.57a.69.69,0,0,1,.5-.21.63.63,0,0,1,.48.21l1,1a.66.66,0,0,1,.19.49.64.64,0,0,1-.19.49l-8.06,8a.63.63,0,0,1-.5.22.61.61,0,0,1-.49-.22Z"/></svg>