<svg xmlns="http://www.w3.org/2000/svg" width="26.25" height="22.969" viewBox="0 0 26.25 22.969">
  <defs>
    <style>
      .cls-1 {
        fill: #444;
        fill-rule: evenodd;
      }
    </style>
  </defs>
  <path id="_" data-name="" class="cls-1" d="M272.813,52.484a0.9,0.9,0,0,1-.938-0.937V49.2a0.9,0.9,0,0,1,.938-0.937h24.375a0.9,0.9,0,0,1,.937.938v2.344a0.9,0.9,0,0,1-.937.938H272.813Zm0,9.375a0.9,0.9,0,0,1-.938-0.937V58.578a0.9,0.9,0,0,1,.938-0.937h24.375a0.9,0.9,0,0,1,.937.938v2.344a0.9,0.9,0,0,1-.937.938H272.813Zm0,9.375a0.9,0.9,0,0,1-.938-0.937V67.953a0.9,0.9,0,0,1,.938-0.937h24.375a0.9,0.9,0,0,1,.937.938V70.3a0.9,0.9,0,0,1-.937.938H272.813Z" transform="translate(-271.875 -48.281)"/>
</svg>
